<svg width="40" height="75" viewBox="50 0 157 77" fill="none" xmlns="http://www.w3.org/2000/svg">
<path d="M106.086 24.848L103.018 40.2735H98.7747L99.0615 38.7539C97.7808 39.9199 96.2038 40.5029 94.3306 40.5029C93.1264 40.5029 92.0177 40.2257 91.0047 39.6714C89.9916 39.1171 89.1792 38.3238 88.5675 37.2916C87.975 36.2403 87.6787 35.0074 87.6787 33.593C87.6787 31.8918 88.0514 30.3626 88.7969 29.0055C89.5615 27.6292 90.5937 26.5588 91.8935 25.7942C93.1933 25.0105 94.6269 24.6187 96.1943 24.6187C98.5645 24.6187 100.237 25.3928 101.212 26.9411L101.613 24.848H106.086ZM95.7068 36.8042C96.5861 36.8042 97.3698 36.594 98.0579 36.1734C98.7461 35.7338 99.2813 35.1317 99.6636 34.3671C100.046 33.6025 100.237 32.7233 100.237 31.7293C100.237 30.678 99.9216 29.8465 99.2908 29.2348C98.6792 28.6232 97.819 28.3173 96.7104 28.3173C95.8311 28.3173 95.0474 28.5372 94.3593 28.9768C93.6711 29.3973 93.1359 29.9899 92.7536 30.7544C92.3713 31.519 92.1802 32.3983 92.1802 33.3923C92.1802 34.4436 92.486 35.2751 93.0977 35.8867C93.7285 36.4984 94.5982 36.8042 95.7068 36.8042Z" fill="url(#paint0_linear)"/>
<path d="M111.632 40.5029C110.294 40.5029 109.023 40.3595 107.819 40.0728C106.634 39.767 105.707 39.3751 105.038 38.8973L106.758 35.6573C107.427 36.097 108.239 36.4506 109.195 36.7182C110.17 36.9858 111.145 37.1196 112.119 37.1196C113.133 37.1196 113.888 36.9954 114.385 36.7469C114.882 36.4793 115.13 36.1065 115.13 35.6287C115.13 35.2464 114.91 34.9692 114.471 34.7972C114.031 34.6252 113.324 34.4436 112.349 34.2524C111.24 34.0422 110.323 33.8128 109.596 33.5643C108.889 33.3158 108.268 32.9144 107.733 32.3601C107.217 31.7866 106.959 31.0125 106.959 30.0376C106.959 28.3364 107.666 27.008 109.08 26.0523C110.514 25.0965 112.387 24.6187 114.7 24.6187C115.77 24.6187 116.812 24.7333 117.825 24.9627C118.838 25.1921 119.698 25.5075 120.406 25.9089L118.8 29.1775C117.538 28.3938 116.019 28.0019 114.241 28.0019C113.266 28.0019 112.521 28.1453 112.005 28.432C111.508 28.7187 111.259 29.0819 111.259 29.5216C111.259 29.923 111.479 30.2192 111.919 30.4104C112.358 30.5824 113.094 30.7736 114.127 30.9838C115.216 31.1941 116.105 31.4235 116.793 31.6719C117.5 31.9013 118.112 32.2932 118.628 32.8475C119.144 33.4018 119.402 34.1568 119.402 35.1126C119.402 36.8329 118.676 38.1614 117.223 39.098C115.79 40.0346 113.926 40.5029 111.632 40.5029Z" fill="url(#paint1_linear)"/>
<path d="M131.595 31.5573L136.899 40.2735H131.71L128.04 34.2811L125.316 36.5462L124.57 40.2735H120.097L124.341 18.999H128.814L126.434 30.8978L133.831 24.848H139.652L131.595 31.5573Z" fill="url(#paint2_linear)"/>
<path d="M81.0842 15.9024V8.73438C81.0842 5.56737 83.6516 3 86.8186 3H148.463C151.63 3 154.198 5.56737 154.198 8.73438V48.8751C154.198 52.0421 151.63 54.6094 148.463 54.6094H138.428L141.782 70.2603C142.075 71.6282 140.436 72.563 139.408 71.6141L124.092 57.4766H86.8186C83.6516 57.4766 81.0842 54.9093 81.0842 51.7422V48.8751" stroke="url(#paint3_linear)" stroke-width="4.30079"/>
<defs>
<linearGradient id="paint0_linear" x1="87.6787" y1="18.999" x2="99.7578" y2="53.1105" gradientUnits="userSpaceOnUse">
<stop stop-color="#485BFF"/>
<stop offset="1" stop-color="#FF59F8"/>
</linearGradient>
<linearGradient id="paint1_linear" x1="87.6787" y1="18.999" x2="99.7578" y2="53.1105" gradientUnits="userSpaceOnUse">
<stop stop-color="#485BFF"/>
<stop offset="1" stop-color="#FF59F8"/>
</linearGradient>
<linearGradient id="paint2_linear" x1="87.6787" y1="18.999" x2="99.7578" y2="53.1105" gradientUnits="userSpaceOnUse">
<stop stop-color="#485BFF"/>
<stop offset="1" stop-color="#FF59F8"/>
</linearGradient>
<linearGradient id="paint3_linear" x1="81.0842" y1="3" x2="141.295" y2="77.547" gradientUnits="userSpaceOnUse">
<stop stop-color="#485BFF"/>
<stop offset="1" stop-color="#FF59F8"/>
</linearGradient>
</defs>
</svg>
